<mxfile host="app.diagrams.net" modified="2024-03-20T01:06:26.611Z" agent="Mozilla/5.0 (Windows NT 10.0; Win64; x64) AppleWebKit/537.36 (KHTML, like Gecko) Chrome/122.0.0.0 Safari/537.36" etag="8QWFmBXGyx9o2aPY2Ft8" version="24.0.7" type="github">
  <diagram name="PÃ¡gina-1" id="5SuImOSUHE1ITO1jqcRT">
    <mxGraphModel dx="950" dy="477" grid="1" gridSize="10" guides="1" tooltips="1" connect="1" arrows="1" fold="1" page="1" pageScale="1" pageWidth="827" pageHeight="1169" math="0" shadow="0">
      <root>
        <mxCell id="0" />
        <mxCell id="1" parent="0" />
        <mxCell id="0_4KgihBbUwdMG1QT6HZ-11" style="edgeStyle=orthogonalEdgeStyle;rounded=0;orthogonalLoop=1;jettySize=auto;html=1;exitX=0.5;exitY=1;exitDx=0;exitDy=0;entryX=0.5;entryY=0;entryDx=0;entryDy=0;" edge="1" parent="1" source="0_4KgihBbUwdMG1QT6HZ-1" target="0_4KgihBbUwdMG1QT6HZ-2">
          <mxGeometry relative="1" as="geometry" />
        </mxCell>
        <mxCell id="0_4KgihBbUwdMG1QT6HZ-1" value="Inicio" style="ellipse;whiteSpace=wrap;html=1;" vertex="1" parent="1">
          <mxGeometry x="290" y="20" width="120" height="80" as="geometry" />
        </mxCell>
        <mxCell id="0_4KgihBbUwdMG1QT6HZ-9" style="edgeStyle=orthogonalEdgeStyle;rounded=0;orthogonalLoop=1;jettySize=auto;html=1;exitX=0.5;exitY=1;exitDx=0;exitDy=0;entryX=0.5;entryY=0;entryDx=0;entryDy=0;" edge="1" parent="1" source="0_4KgihBbUwdMG1QT6HZ-2" target="0_4KgihBbUwdMG1QT6HZ-3">
          <mxGeometry relative="1" as="geometry" />
        </mxCell>
        <mxCell id="0_4KgihBbUwdMG1QT6HZ-2" value="Indice&amp;nbsp;" style="rounded=0;whiteSpace=wrap;html=1;" vertex="1" parent="1">
          <mxGeometry x="290" y="150" width="120" height="60" as="geometry" />
        </mxCell>
        <mxCell id="0_4KgihBbUwdMG1QT6HZ-5" style="edgeStyle=orthogonalEdgeStyle;rounded=0;orthogonalLoop=1;jettySize=auto;html=1;exitX=0.5;exitY=1;exitDx=0;exitDy=0;entryX=0.5;entryY=0;entryDx=0;entryDy=0;" edge="1" parent="1" source="0_4KgihBbUwdMG1QT6HZ-3" target="0_4KgihBbUwdMG1QT6HZ-4">
          <mxGeometry relative="1" as="geometry" />
        </mxCell>
        <mxCell id="0_4KgihBbUwdMG1QT6HZ-3" value="Indice &amp;lt;=4" style="rhombus;whiteSpace=wrap;html=1;" vertex="1" parent="1">
          <mxGeometry x="280" y="260" width="140" height="80" as="geometry" />
        </mxCell>
        <mxCell id="0_4KgihBbUwdMG1QT6HZ-10" style="edgeStyle=orthogonalEdgeStyle;rounded=0;orthogonalLoop=1;jettySize=auto;html=1;exitX=0.5;exitY=1;exitDx=0;exitDy=0;entryX=0.5;entryY=0;entryDx=0;entryDy=0;" edge="1" parent="1" source="0_4KgihBbUwdMG1QT6HZ-4" target="0_4KgihBbUwdMG1QT6HZ-6">
          <mxGeometry relative="1" as="geometry" />
        </mxCell>
        <mxCell id="0_4KgihBbUwdMG1QT6HZ-4" value="Proceso" style="rounded=0;whiteSpace=wrap;html=1;" vertex="1" parent="1">
          <mxGeometry x="290" y="410" width="120" height="60" as="geometry" />
        </mxCell>
        <mxCell id="0_4KgihBbUwdMG1QT6HZ-6" value="Indice = indice + 1" style="rounded=0;whiteSpace=wrap;html=1;" vertex="1" parent="1">
          <mxGeometry x="290" y="510" width="120" height="60" as="geometry" />
        </mxCell>
        <mxCell id="0_4KgihBbUwdMG1QT6HZ-7" value="si" style="text;html=1;align=center;verticalAlign=middle;whiteSpace=wrap;rounded=0;" vertex="1" parent="1">
          <mxGeometry x="330" y="350" width="60" height="30" as="geometry" />
        </mxCell>
      </root>
    </mxGraphModel>
  </diagram>
</mxfile>
